<svg width="33" height="34" viewBox="0 0 33 34" fill="none" xmlns="http://www.w3.org/2000/svg">
<g clip-path="url(#clip0_31_785)">
<path fill-rule="evenodd" clip-rule="evenodd" d="M9.2264 11.7623C9.2264 10.9512 9.8839 10.2937 10.695 10.2937L22.8101 10.2937C23.1996 10.2937 23.5731 10.4484 23.8485 10.7238C24.1239 10.9992 24.2787 11.3728 24.2787 11.7623V23.8774C24.2787 24.6884 23.6211 25.3459 22.8101 25.3459C21.999 25.3459 21.3415 24.6884 21.3415 23.8774L21.3415 15.3077L11.7334 24.9158C11.1599 25.4893 10.23 25.4893 9.65654 24.9158C9.08302 24.3423 9.08302 23.4125 9.65654 22.8389L19.2646 13.2308L10.695 13.2308C9.8839 13.2308 9.2264 12.5733 9.2264 11.7623Z" fill="#F5F5F5"/>
<path fill-rule="evenodd" clip-rule="evenodd" d="M-3.7946 29.8785C-3.7946 29.4447 -3.44298 29.0931 -3.00923 29.0931L3.46971 29.0931C3.678 29.0931 3.87776 29.1758 4.02504 29.3231C4.17233 29.4704 4.25507 29.6702 4.25507 29.8785V36.3574C4.25507 36.7911 3.90345 37.1428 3.46971 37.1428C3.03596 37.1428 2.68434 36.7911 2.68434 36.3574V31.7745L-2.45389 36.9127C-2.7606 37.2194 -3.25786 37.2194 -3.56457 36.9127C-3.87127 36.606 -3.87127 36.1088 -3.56457 35.8021L1.57367 30.6638L-3.00923 30.6638C-3.44298 30.6638 -3.7946 30.3122 -3.7946 29.8785Z" fill="white"/>
</g>
<defs>
<clipPath id="clip0_31_785">
<rect width="23" height="23" fill="white" transform="translate(0.230469 16.8545) rotate(-45)"/>
</clipPath>
</defs>
</svg>
