<svg width="45" height="44" viewBox="0 0 45 44" fill="none" xmlns="http://www.w3.org/2000/svg">
<path d="M26.0279 4.53178L29.6208 11.777C30.1108 12.7856 31.4173 13.753 32.5197 13.9383L39.0319 15.0292C43.1964 15.729 44.1763 18.7753 41.1754 21.7804L36.1126 26.885C35.2552 27.7495 34.7857 29.4168 35.0511 30.6106L36.5005 36.9296C37.6437 41.9313 35.0102 43.8661 30.6212 41.2521L24.5172 37.6088C23.4149 36.9502 21.598 36.9502 20.4752 37.6088L14.3713 41.2521C10.0026 43.8661 7.34872 41.9107 8.49193 36.9296L9.94135 30.6106C10.2067 29.4168 9.73721 27.7495 8.8798 26.885L3.81703 21.7804C0.836526 18.7753 1.796 15.729 5.96054 15.0292L12.4727 13.9383C13.5547 13.753 14.8612 12.7856 15.3512 11.777L18.9441 4.53178C20.9039 0.600408 24.0885 0.600408 26.0279 4.53178Z" stroke="#141514" stroke-width="3" stroke-linecap="round" stroke-linejoin="round"/>
</svg>
