<svg width="43" height="45" viewBox="0 0 43 45" fill="none" xmlns="http://www.w3.org/2000/svg">
<path d="M21.4957 2.08325C15.3548 2.08325 11.3731 6.20536 6.66401 7.70784C4.74929 8.31877 3.79191 8.62423 3.40447 9.05483C3.01702 9.48543 2.90357 10.1147 2.67666 11.3731C0.248527 24.8397 5.55577 37.2897 18.2129 42.1356C19.5728 42.6563 20.2528 42.9166 21.5024 42.9166C22.752 42.9166 23.4319 42.6562 24.7918 42.1356C37.448 37.2896 42.7503 24.8396 40.3214 11.3731C40.0944 10.1144 39.9809 9.4851 39.5934 9.0545C39.2058 8.62389 38.2485 8.3186 36.3339 7.70802C31.623 6.20567 27.6368 2.08325 21.4957 2.08325Z" stroke="#141514" stroke-width="3" stroke-linecap="round" stroke-linejoin="round"/>
<path d="M15.375 24.5417C15.375 24.5417 17.4167 24.5417 19.4583 28.625C19.4583 28.625 25.9436 18.4167 31.7083 16.375" stroke="#141514" stroke-width="3" stroke-linecap="round" stroke-linejoin="round"/>
</svg>
