<svg width="45" height="39" viewBox="0 0 45 39" fill="none" xmlns="http://www.w3.org/2000/svg">
<path d="M35.7813 34.7917H36.682C38.7949 34.7917 40.4754 33.829 41.9843 32.4829C45.8176 29.0632 36.8067 25.6038 33.7305 25.6038" stroke="#141514" stroke-width="3" stroke-linecap="round" stroke-linejoin="round"/>
<path d="M28.625 6.34865C29.0886 6.2567 29.57 6.20825 30.0639 6.20825C33.7795 6.20825 36.7917 8.95051 36.7917 12.3333C36.7917 15.716 33.7795 18.4583 30.0639 18.4583C29.57 18.4583 29.0886 18.4098 28.625 18.3179" stroke="#141514" stroke-width="3" stroke-linecap="round"/>
<path d="M7.76504 26.8519C5.51844 28.1419 -0.372016 30.7758 3.21566 34.0717C4.96822 35.6818 6.92011 36.8332 9.37411 36.8332H23.3772C25.8312 36.8332 27.7831 35.6818 29.5356 34.0717C33.1233 30.7758 27.2329 28.1419 24.9863 26.8519C19.718 23.827 13.0333 23.827 7.76504 26.8519Z" stroke="#141514" stroke-width="3" stroke-linecap="round" stroke-linejoin="round"/>
<path d="M24.5423 10.2917C24.5423 14.802 20.886 18.4583 16.3757 18.4583C11.8653 18.4583 8.20898 14.802 8.20898 10.2917C8.20898 5.78134 11.8653 2.125 16.3757 2.125C20.886 2.125 24.5423 5.78134 24.5423 10.2917Z" stroke="#141514" stroke-width="3"/>
</svg>
