<svg width="11" height="11" viewBox="0 0 11 11" fill="none" xmlns="http://www.w3.org/2000/svg">
<path fill-rule="evenodd" clip-rule="evenodd" d="M4.94414 0.363528C5.25085 0.056823 5.74811 0.056823 6.05482 0.363527L10.6361 4.94483C10.7834 5.09211 10.8661 5.29187 10.8661 5.50017C10.8661 5.70846 10.7834 5.90822 10.6361 6.0555L6.05482 10.6368C5.74811 10.9435 5.25085 10.9435 4.94414 10.6368C4.63744 10.3301 4.63744 9.83283 4.94414 9.52613L8.18474 6.28553H0.918178C0.484433 6.28553 0.132812 5.93391 0.132812 5.50017C0.132812 5.06642 0.484433 4.7148 0.918178 4.7148H8.18474L4.94414 1.4742C4.63744 1.1675 4.63744 0.670232 4.94414 0.363528Z" fill="#1D9B96"/>
</svg>
