<svg width="17" height="17" viewBox="0 0 17 17" fill="none" xmlns="http://www.w3.org/2000/svg">
<path fill-rule="evenodd" clip-rule="evenodd" d="M9.37957 16.6357C8.8938 17.1214 8.1062 17.1214 7.62043 16.6357L0.364329 9.37957C0.131053 9.14629 -1.1931e-06 8.8299 -1.16426e-06 8.5C-1.13541e-06 8.1701 0.131053 7.8537 0.364329 7.62043L7.62043 0.364331C8.1062 -0.121444 8.8938 -0.121444 9.37957 0.364332C9.86535 0.850105 9.86535 1.6377 9.37957 2.12347L4.24695 7.2561L15.7561 7.2561C16.4431 7.2561 17 7.81301 17 8.5C17 9.18699 16.4431 9.7439 15.7561 9.7439L4.24695 9.7439L9.37957 14.8765C9.86535 15.3623 9.86535 16.1499 9.37957 16.6357Z" fill="#1D9B96"/>
</svg>
