<svg width="17" height="17" viewBox="0 0 17 17" fill="none" xmlns="http://www.w3.org/2000/svg">
<path fill-rule="evenodd" clip-rule="evenodd" d="M7.62043 0.364331C8.1062 -0.121444 8.8938 -0.121444 9.37957 0.364331L16.6357 7.62043C16.8689 7.8537 17 8.1701 17 8.5C17 8.8299 16.8689 9.14629 16.6357 9.37957L9.37957 16.6357C8.8938 17.1214 8.1062 17.1214 7.62043 16.6357C7.13465 16.1499 7.13465 15.3623 7.62043 14.8765L12.7531 9.7439L1.2439 9.7439C0.556914 9.7439 0 9.18699 0 8.5C0 7.81301 0.556914 7.2561 1.2439 7.2561L12.7531 7.2561L7.62043 2.12347C7.13465 1.6377 7.13465 0.850105 7.62043 0.364331Z" fill="#F5F5F5"/>
</svg>
