<svg width="31" height="30" viewBox="0 0 31 30" fill="none" xmlns="http://www.w3.org/2000/svg">
<path d="M0.457031 15C0.457031 6.71573 7.17276 0 15.457 0C23.7413 0 30.457 6.71573 30.457 15C30.457 23.2843 23.7413 30 15.457 30C7.17276 30 0.457031 23.2843 0.457031 15Z" fill="#176763"/>
<mask id="mask0_262_714" style="mask-type:luminance" maskUnits="userSpaceOnUse" x="0" y="0" width="31" height="30">
<path fill-rule="evenodd" clip-rule="evenodd" d="M0.457031 15C0.457031 6.71573 7.17276 0 15.457 0C23.7413 0 30.457 6.71573 30.457 15C30.457 23.2843 23.7413 30 15.457 30C7.17276 30 0.457031 23.2843 0.457031 15Z" fill="white"/>
</mask>
<g mask="url(#mask0_262_714)">
<path fill-rule="evenodd" clip-rule="evenodd" d="M15.4578 7C13.2851 7 13.0124 7.0095 12.1591 7.04833C11.3074 7.08733 10.7261 7.22217 10.2174 7.42C9.69122 7.62434 9.24488 7.89768 8.80021 8.34251C8.35521 8.78719 8.08187 9.23352 7.87687 9.75953C7.67853 10.2684 7.54353 10.8499 7.5052 11.7012C7.46703 12.5546 7.45703 12.8274 7.45703 15.0001C7.45703 17.1728 7.4667 17.4446 7.50537 18.298C7.54453 19.1496 7.67937 19.731 7.87704 20.2396C8.08154 20.7658 8.35487 21.2121 8.79971 21.6568C9.24422 22.1018 9.69055 22.3758 10.2164 22.5802C10.7254 22.778 11.3069 22.9128 12.1584 22.9518C13.0118 22.9907 13.2843 23.0002 15.4568 23.0002C17.6296 23.0002 17.9015 22.9907 18.7548 22.9518C19.6065 22.9128 20.1885 22.778 20.6975 22.5802C21.2235 22.3758 21.6692 22.1018 22.1137 21.6568C22.5587 21.2121 22.832 20.7658 23.037 20.2398C23.2337 19.731 23.3687 19.1495 23.4087 18.2981C23.447 17.4448 23.457 17.1728 23.457 15.0001C23.457 12.8274 23.447 12.5547 23.4087 11.7014C23.3687 10.8497 23.2337 10.2684 23.037 9.7597C22.832 9.23352 22.5587 8.78719 22.1137 8.34251C21.6687 7.89751 21.2237 7.62417 20.697 7.42C20.187 7.22217 19.6053 7.08733 18.7536 7.04833C17.9003 7.0095 17.6286 7 15.4553 7H15.4578ZM15.1915 8.44174H15.1917L15.4583 8.44182C17.5943 8.44182 17.8475 8.44949 18.691 8.48782C19.471 8.52349 19.8944 8.65382 20.1764 8.76332C20.5497 8.90832 20.8159 9.08166 21.0957 9.36166C21.3757 9.64167 21.549 9.90833 21.6944 10.2817C21.8039 10.5633 21.9344 10.9867 21.9699 11.7667C22.0082 12.61 22.0165 12.8634 22.0165 14.9984C22.0165 17.1334 22.0082 17.3867 21.9699 18.2301C21.9342 19.0101 21.8039 19.4334 21.6944 19.7151C21.5494 20.0884 21.3757 20.3543 21.0957 20.6341C20.8157 20.9141 20.5499 21.0875 20.1764 21.2325C19.8947 21.3425 19.471 21.4725 18.691 21.5081C17.8477 21.5465 17.5943 21.5548 15.4583 21.5548C13.3221 21.5548 13.0689 21.5465 12.2256 21.5081C11.4456 21.4721 11.0223 21.3418 10.7401 21.2323C10.3668 21.0873 10.1001 20.9139 9.82008 20.6339C9.54008 20.3539 9.36674 20.0879 9.22141 19.7144C9.1119 19.4328 8.9814 19.0094 8.9459 18.2294C8.90757 17.3861 8.8999 17.1327 8.8999 14.9964C8.8999 12.86 8.90757 12.608 8.9459 11.7647C8.98157 10.9847 9.1119 10.5613 9.22141 10.2793C9.36641 9.906 9.54008 9.63933 9.82008 9.35933C10.1001 9.07933 10.3668 8.90599 10.7401 8.76066C11.0221 8.65065 11.4456 8.52065 12.2256 8.48482C12.9636 8.45149 13.2496 8.44149 14.7406 8.43982V8.44182C14.8799 8.4416 15.0298 8.44167 15.1915 8.44174ZM18.7681 10.7298C18.7681 10.1996 19.1981 9.77011 19.7281 9.77011V9.76978C20.2581 9.76978 20.6881 10.1998 20.6881 10.7298C20.6881 11.2598 20.2581 11.6898 19.7281 11.6898C19.1981 11.6898 18.7681 11.2598 18.7681 10.7298ZM15.4581 10.8916C13.1893 10.8917 11.3499 12.7312 11.3499 15C11.3499 17.2688 13.1894 19.1075 15.4582 19.1075C17.7271 19.1075 19.5659 17.2688 19.5659 15C19.5659 12.7311 17.7269 10.8916 15.4581 10.8916ZM18.1249 14.9999C18.1249 13.5271 16.9309 12.3333 15.4582 12.3333C13.9853 12.3333 12.7915 13.5271 12.7915 14.9999C12.7915 16.4726 13.9853 17.6666 15.4582 17.6666C16.9309 17.6666 18.1249 16.4726 18.1249 14.9999Z" fill="#F5F5F5"/>
</g>
</svg>
