<svg width="31" height="30" viewBox="0 0 31 30" fill="none" xmlns="http://www.w3.org/2000/svg">
<g clip-path="url(#clip0_262_729)">
<path d="M15.457 30C23.7413 30 30.457 23.2843 30.457 15C30.457 6.71573 23.7413 0 15.457 0C7.17276 0 0.457031 6.71573 0.457031 15C0.457031 23.2843 7.17276 30 15.457 30Z" fill="#176763"/>
<path d="M23.6292 7.75562L23.319 7.86812L6.48151 13.9346C6.36219 13.9715 6.25848 14.0469 6.18665 14.1491C6.11481 14.2513 6.07891 14.3744 6.08456 14.4992C6.09022 14.6239 6.13711 14.7433 6.21789 14.8385C6.29867 14.9338 6.40877 14.9996 6.53094 15.0255L10.8895 16.2187L11.7025 18.6051L12.5156 20.9914C12.5623 21.1084 12.6369 21.2122 12.7328 21.2938C12.8287 21.3755 12.9431 21.4325 13.0661 21.4598C13.189 21.4872 13.3168 21.4842 13.4383 21.4509C13.5598 21.4177 13.6714 21.3554 13.7633 21.2693L16.015 19.142L20.4366 22.1403C20.977 22.5085 21.7474 22.2357 21.8855 21.6289L24.8139 8.68971C24.9571 8.0488 24.2821 7.5221 23.6292 7.75562ZM21.4798 10.6278L13.8724 16.846L13.5145 17.1391C13.4358 17.2015 13.3845 17.2919 13.3713 17.3914L13.2912 18.0528L13.0713 19.9107C13.0731 19.9333 13.0658 19.9557 13.0511 19.973C13.0364 19.9903 13.0155 20.001 12.9929 20.0028C12.9703 20.0046 12.9479 19.9973 12.9306 19.9826C12.9133 19.9679 12.9026 19.947 12.9008 19.9244L12.2821 18.0681L11.6429 16.1676C11.6158 16.0821 11.6194 15.9899 11.653 15.9069C11.6866 15.8238 11.7481 15.7551 11.827 15.7124L19.7429 11.1749L21.2326 10.3227C21.4491 10.1965 21.6707 10.471 21.4798 10.6278Z" fill="#F5F5F5"/>
</g>
<defs>
<clipPath id="clip0_262_729">
<rect width="30" height="30" fill="white" transform="translate(0.457031)"/>
</clipPath>
</defs>
</svg>
