<svg width="31" height="30" viewBox="0 0 31 30" fill="none" xmlns="http://www.w3.org/2000/svg">
<g clip-path="url(#clip0_262_734)">
<path d="M15.457 30C23.7413 30 30.457 23.2843 30.457 15C30.457 6.71573 23.7413 0 15.457 0C7.17276 0 0.457031 6.71573 0.457031 15C0.457031 23.2843 7.17276 30 15.457 30Z" fill="#176763"/>
<path d="M22.0717 8.38606C20.5111 6.80986 18.4386 5.84323 16.2281 5.66053C14.0175 5.47782 11.8144 6.09107 10.0162 7.38965C8.21796 8.68824 6.94297 10.5867 6.42119 12.7425C5.89941 14.8984 6.1652 17.1697 7.17061 19.1469L6.18367 23.9383C6.17343 23.986 6.17314 24.0353 6.18282 24.0831C6.1925 24.1309 6.21194 24.1762 6.23992 24.2162C6.28092 24.2768 6.33944 24.3235 6.40766 24.35C6.47588 24.3765 6.55057 24.3815 6.62174 24.3645L11.3178 23.2514C13.2894 24.2314 15.5447 24.48 17.6824 23.9532C19.8201 23.4264 21.7016 22.1583 22.9921 20.3744C24.2826 18.5906 24.8984 16.4067 24.7298 14.2115C24.5613 12.0163 23.6194 9.95202 22.0717 8.38606ZM20.6075 20.0724C19.5277 21.1492 18.1373 21.86 16.6321 22.1046C15.127 22.3492 13.583 22.1154 12.2178 21.4361L11.5632 21.1122L8.68424 21.794L8.69277 21.7582L9.28936 18.8605L8.9689 18.2281C8.27133 16.8581 8.02526 15.3025 8.26592 13.7841C8.50659 12.2657 9.22165 10.8624 10.3087 9.77526C11.6745 8.40983 13.5268 7.64277 15.4581 7.64277C17.3894 7.64277 19.2417 8.40983 20.6075 9.77526C20.6192 9.7886 20.6317 9.80113 20.645 9.81276C21.994 11.1817 22.747 13.0284 22.74 14.9503C22.733 16.8722 21.9664 18.7134 20.6075 20.0724Z" fill="#F5F5F5"/>
<path d="M20.3524 17.9466C19.9996 18.5023 19.4422 19.1824 18.7416 19.3512C17.5144 19.6478 15.6308 19.3614 13.2871 17.1762L13.2581 17.1506C11.1973 15.2398 10.6621 13.6495 10.7916 12.3881C10.8632 11.6722 11.4598 11.0245 11.9627 10.6018C12.0422 10.5339 12.1364 10.4856 12.2379 10.4607C12.3394 10.4358 12.4454 10.435 12.5472 10.4583C12.6491 10.4817 12.7441 10.5286 12.8246 10.5952C12.9051 10.6618 12.969 10.7464 13.011 10.8421L13.7695 12.5466C13.8188 12.6572 13.837 12.779 13.8223 12.8991C13.8076 13.0193 13.7605 13.1331 13.686 13.2285L13.3024 13.7262C13.2201 13.829 13.1705 13.954 13.1599 14.0852C13.1492 14.2165 13.1781 14.3479 13.2428 14.4626C13.4576 14.8393 13.9723 15.3932 14.5433 15.9063C15.1843 16.4858 15.8951 17.016 16.3451 17.1966C16.4655 17.2458 16.5978 17.2578 16.7251 17.2311C16.8524 17.2044 16.9688 17.1401 17.0593 17.0466L17.5041 16.5983C17.59 16.5137 17.6967 16.4533 17.8135 16.4234C17.9303 16.3934 18.0529 16.395 18.1689 16.4279L19.9706 16.9393C20.07 16.9697 20.1611 17.0226 20.237 17.0936C20.3128 17.1647 20.3714 17.2522 20.4082 17.3494C20.4451 17.4467 20.4592 17.551 20.4495 17.6545C20.4399 17.758 20.4066 17.8579 20.3524 17.9466Z" fill="#F5F5F5"/>
</g>
<defs>
<clipPath id="clip0_262_734">
<rect width="30" height="30" fill="white" transform="translate(0.457031)"/>
</clipPath>
</defs>
</svg>
