<svg width="22" height="22" viewBox="0 0 22 22" fill="none" xmlns="http://www.w3.org/2000/svg">
<path d="M19.957 21.125C20.5758 21.125 21.082 20.6187 21.082 20V16.0738C21.082 15.455 20.5758 14.9488 19.957 14.9488C18.562 14.9488 17.2008 14.7237 15.9408 14.3075C15.8283 14.2625 15.7045 14.2513 15.592 14.2513C15.2995 14.2513 15.0183 14.3638 14.7933 14.5775L12.3183 17.0525C9.13453 15.4212 6.52453 12.8225 4.90453 9.63875L7.37953 7.16375C7.69453 6.84875 7.78453 6.41 7.66078 6.01625C7.24453 4.75625 7.01953 3.40625 7.01953 2C7.01953 1.38125 6.51328 0.875 5.89453 0.875H1.95703C1.33828 0.875 0.832031 1.38125 0.832031 2C0.832031 12.5638 9.39328 21.125 19.957 21.125ZM15.907 16.6475C16.8633 16.9175 17.842 17.0862 18.832 17.1537V18.83C17.347 18.7287 15.9183 18.4362 14.557 17.9862L15.907 16.6475ZM3.11578 3.125H4.80328C4.88203 4.12625 5.05078 5.105 5.32078 6.03875L3.97078 7.38875C3.50953 6.03875 3.21703 4.61 3.11578 3.125Z" fill="#141514"/>
</svg>
