<svg width="12" height="11" viewBox="0 0 12 11" fill="none" xmlns="http://www.w3.org/2000/svg">
<path fill-rule="evenodd" clip-rule="evenodd" d="M5.32683 0.230028C5.66639 -0.0766761 6.21694 -0.0766761 6.5565 0.230028L11.6287 4.81133C11.7917 4.95861 11.8833 5.15837 11.8833 5.36667C11.8833 5.57496 11.7917 5.77472 11.6287 5.922L6.5565 10.5033C6.21694 10.81 5.66639 10.81 5.32683 10.5033C4.98726 10.1966 4.98726 9.69933 5.32683 9.39263L8.91463 6.15203H0.869512C0.389294 6.15203 0 5.80041 0 5.36667C0 4.93292 0.389294 4.5813 0.869512 4.5813H8.91463L5.32683 1.3407C4.98726 1.034 4.98726 0.536733 5.32683 0.230028Z" fill="#F5F5F5"/>
</svg>
