<svg width="16" height="16" viewBox="0 0 16 16" fill="none" xmlns="http://www.w3.org/2000/svg">
<path fill-rule="evenodd" clip-rule="evenodd" d="M0.361167 1.76227C0.361167 0.951202 1.01867 0.2937 1.82974 0.2937L13.9448 0.293699C14.3343 0.293699 14.7079 0.448423 14.9833 0.723833C15.2587 0.999244 15.4134 1.37278 15.4134 1.76227V13.8774C15.4134 14.6884 14.7559 15.346 13.9448 15.3459C13.1338 15.3459 12.4763 14.6884 12.4763 13.8774L12.4763 5.30772L2.86818 14.9158C2.29466 15.4893 1.36482 15.4893 0.791302 14.9158C0.217789 14.3423 0.217789 13.4125 0.791302 12.8389L10.3994 3.23084L1.82974 3.23084C1.01867 3.23084 0.361167 2.57334 0.361167 1.76227Z" fill="#F5F5F5"/>
</svg>
