<svg width="11" height="11" viewBox="0 0 11 11" fill="none" xmlns="http://www.w3.org/2000/svg">
<path fill-rule="evenodd" clip-rule="evenodd" d="M4.94414 0.363329C5.25085 0.0566247 5.74811 0.0566247 6.05482 0.363329L10.6361 4.94463C10.7834 5.09191 10.8661 5.29168 10.8661 5.49997C10.8661 5.70826 10.7834 5.90802 10.6361 6.0553L6.05482 10.6366C5.74811 10.9433 5.25085 10.9433 4.94414 10.6366C4.63744 10.3299 4.63744 9.83264 4.94414 9.52593L8.18474 6.28533H0.918178C0.484433 6.28533 0.132812 5.93371 0.132812 5.49997C0.132812 5.06622 0.484433 4.7146 0.918178 4.7146H8.18474L4.94414 1.474C4.63744 1.1673 4.63744 0.670034 4.94414 0.363329Z" fill="#F5F5F5"/>
</svg>
