<svg width="12" height="12" viewBox="0 0 12 12" fill="none" xmlns="http://www.w3.org/2000/svg">
<path fill-rule="evenodd" clip-rule="evenodd" d="M10.8618 5.16997C11.1685 5.47668 11.1685 5.97394 10.8618 6.28065L6.28047 10.8619C6.13318 11.0092 5.93342 11.092 5.72513 11.092C5.51684 11.092 5.31708 11.0092 5.16979 10.8619L0.588491 6.28065C0.281787 5.97394 0.281787 5.47668 0.588491 5.16997C0.895196 4.86327 1.39246 4.86327 1.69917 5.16997L4.93976 8.41057L4.93976 1.14401C4.93976 0.710263 5.29138 0.358642 5.72513 0.358642C6.15888 0.358642 6.5105 0.710263 6.5105 1.14401L6.5105 8.41057L9.75109 5.16997C10.0578 4.86327 10.5551 4.86327 10.8618 5.16997Z" fill="#141514"/>
</svg>
